<svg width="368" height="298" viewBox="0 0 368 298" fill="none" xmlns="http://www.w3.org/2000/svg">
<g clip-path="url(#clip0)">
<path d="M183.301 2C101.946 2 35.9968 58.1584 35.9968 139.51C35.9968 220.1 114.706 255.675 181.355 295.447C181.946 295.801 182.621 295.992 183.31 296C183.999 296.007 184.677 295.832 185.276 295.491C253.584 256.844 330.605 220.1 330.605 139.51C330.605 58.1584 264.653 2 183.301 2" fill="#FFB26E"/>
<path d="M183.301 2C101.946 2 35.9968 58.1584 35.9968 139.51C35.9968 220.1 114.706 255.675 181.355 295.447C181.946 295.801 182.621 295.992 183.31 296C183.999 296.007 184.677 295.832 185.276 295.491C253.584 256.844 330.605 220.1 330.605 139.51C330.605 58.1584 264.653 2 183.301 2" stroke="white" stroke-width="2" stroke-miterlimit="10"/>
<mask id="mask0" style="mask-type:alpha" maskUnits="userSpaceOnUse" x="3" y="1" width="367" height="296">
<path d="M183.301 2C82.2538 2 4.5 60.6051 4.5 141.957C4.5 163.232 41.4823 178.923 50.7832 194.829C76.7137 239.175 132.301 266.175 181.355 295.447C181.946 295.801 182.621 295.992 183.31 296C183.999 296.007 184.677 295.832 185.276 295.491C201.278 286.437 217.758 277.488 233.614 268.055C287.524 268.055 360.612 240.445 368.388 110.337C368.388 28.9852 264.653 2 183.301 2Z" fill="#45DFA7" stroke="white" stroke-width="2" stroke-miterlimit="10"/>
</mask>
<g mask="url(#mask0)">
<path d="M92.8741 186.586C87.8354 178.981 33.2524 163.502 13.312 153.341L116.528 14.8579L178.912 29.8795L92.8741 186.586Z" fill="white"/>
<path d="M92.8741 186.586C87.8354 178.981 33.2524 163.502 13.312 153.341L116.528 14.8579L178.912 29.8795" stroke="#FFB26E" stroke-width="1.2" stroke-linecap="round" stroke-linejoin="round"/>
<path d="M164.392 217.921L92.8779 186.579L113.163 149.624L178.913 29.8794C190.161 31.5081 201.836 33.5011 213.936 35.8583C228.54 38.7297 242.397 41.9242 255.462 45.2967L164.392 217.921Z" fill="white"/>
<path d="M164.392 217.932L92.874 186.586" stroke="#FFB26E" stroke-width="1.2" stroke-linecap="round" stroke-linejoin="round"/>
<path d="M115.305 145.728L178.912 29.8794C190.161 31.5081 201.836 33.5011 213.936 35.8583C228.54 38.7297 242.397 41.9242 255.461 45.2966" stroke="#FFB26E" stroke-width="1.2" stroke-linecap="round" stroke-linejoin="round"/>
<path d="M238.066 78.2985L255.469 45.3113C282.622 56.14 343.006 65.357 356.637 76.8936C341.56 104.79 326.523 133.651 311.526 163.476C294.73 196.946 278.947 229.767 264.177 261.937L164.392 217.921L222.837 107.165" fill="white"/>
<path d="M238.066 78.2985L255.469 45.3113C282.622 56.14 343.006 65.357 356.637 76.8936C341.56 104.79 326.523 133.651 311.526 163.476C294.73 196.946 278.947 229.767 264.177 261.937L164.392 217.921L222.837 107.165" stroke="#FFB26E" stroke-width="1.2" stroke-linecap="round" stroke-linejoin="round"/>
<path d="M188.634 90.4341L188.525 102.875C188.522 103.173 188.604 103.466 188.761 103.719C188.919 103.973 189.145 104.176 189.414 104.305L202.784 110.705C203.066 110.843 203.3 111.062 203.455 111.334C203.611 111.606 203.682 111.918 203.659 112.231C203.635 112.543 203.519 112.842 203.324 113.087C203.129 113.333 202.865 113.515 202.566 113.609L186.347 118.571C186.118 118.641 185.909 118.762 185.734 118.925C185.559 119.088 185.424 119.289 185.338 119.512L180.038 133.397C179.943 133.647 179.786 133.869 179.581 134.041C179.376 134.213 179.131 134.33 178.868 134.38C178.605 134.431 178.334 134.414 178.08 134.33C177.826 134.246 177.598 134.099 177.417 133.902L167.216 122.848C167.056 122.675 166.86 122.541 166.641 122.454C166.423 122.367 166.187 122.331 165.953 122.347L149.319 123.505C149.006 123.527 148.694 123.455 148.422 123.298C148.15 123.14 147.932 122.905 147.796 122.622C147.659 122.34 147.611 122.022 147.656 121.712C147.702 121.401 147.84 121.111 148.052 120.88L157.741 110.298C157.944 110.077 158.079 109.803 158.13 109.508C158.182 109.212 158.148 108.909 158.032 108.632L153.276 97.2915C153.166 97.0295 153.13 96.7427 153.17 96.4616C153.211 96.1805 153.327 95.9157 153.506 95.6954C153.686 95.4752 153.921 95.3077 154.188 95.211C154.455 95.1142 154.744 95.0918 155.022 95.146L171.14 98.2752C171.537 98.3508 171.947 98.2715 172.287 98.0538L186.216 89.1018C186.454 88.9486 186.729 88.8625 187.012 88.8527C187.295 88.843 187.575 88.91 187.823 89.0465C188.07 89.1831 188.277 89.3842 188.42 89.6285C188.562 89.8728 188.636 90.1511 188.634 90.4341Z" fill="#FFB26E"/>
<path d="M132.116 112.585C131.405 108.104 131.577 103.526 132.62 99.1103C133.695 94.6914 135.64 90.5311 138.342 86.8731C141.025 83.2363 144.322 80.0952 148.085 77.5908C149.972 76.3235 151.98 75.245 154.078 74.3708C155.152 73.9224 156.256 73.5488 157.382 73.2528C157.665 73.1765 157.959 73.1112 158.249 73.0458L159.066 72.8825C159.607 72.7736 160.155 72.6647 160.696 72.5812C169.408 71.0928 178.509 71.5248 187.033 74.3019C191.334 75.7103 195.37 77.8281 198.972 80.5675C202.603 83.3235 205.705 86.7144 208.128 90.5758C210.564 94.4658 212.205 98.8003 212.956 103.329C213.702 107.893 213.454 112.565 212.23 117.025C211.621 119.249 210.777 121.401 209.714 123.447C209.188 124.474 208.596 125.458 207.986 126.413C207.376 127.367 206.712 128.293 206.019 129.19C203.24 132.754 199.943 135.883 196.239 138.472C188.891 143.645 180.313 146.821 171.496 148.077C162.678 149.333 153.505 148.589 145.017 145.507L146.894 140.396C154.427 143.195 162.736 143.932 170.781 142.857C178.825 141.783 186.684 138.908 193.317 134.301C196.625 132.024 199.575 129.267 202.069 126.119C203.302 124.562 204.395 122.901 205.336 121.153C206.251 119.419 206.981 117.594 207.514 115.707C208.575 111.929 208.809 107.967 208.2 104.091C207.575 100.183 206.183 96.4378 204.105 93.0697C202.008 89.6736 199.312 86.686 196.148 84.2521C192.971 81.8007 189.405 79.8988 185.599 78.6254C181.733 77.351 177.721 76.5704 173.659 76.3021C169.573 76.0362 165.47 76.2384 161.429 76.9047C160.921 76.9773 160.42 77.0753 159.916 77.1733L159.164 77.3149C158.935 77.3657 158.707 77.4165 158.478 77.4746C157.541 77.7164 156.622 78.0208 155.726 78.3858C153.886 79.142 152.123 80.0745 150.463 81.1701C147.105 83.3768 144.157 86.1504 141.75 89.367C139.343 92.5622 137.597 96.2053 136.614 100.083C135.668 103.98 135.495 108.023 136.102 111.986L132.116 112.585Z" fill="black"/>
<path d="M131.789 81.1481C131.426 81.9141 131.063 82.6764 130.733 83.4605L130.228 84.6258L129.76 85.8056C128.502 88.9383 127.499 92.1676 126.762 95.4618C125.214 101.965 124.935 108.706 125.941 115.315C127.03 121.806 129.684 128.021 134.095 132.765C136.329 135.166 138.931 137.197 141.801 138.784C144.755 140.389 147.888 141.639 151.135 142.509L150.303 146.331C148.464 146.019 146.646 145.594 144.858 145.061C143.063 144.503 141.307 143.828 139.602 143.039C136.129 141.415 132.948 139.23 130.185 136.573C127.447 133.85 125.169 130.701 123.44 127.247C121.744 123.821 120.529 120.177 119.832 116.419C119.123 112.712 118.839 108.936 118.986 105.165C119.116 101.424 119.603 97.7028 120.438 94.0533C121.255 90.4258 122.373 86.8729 123.781 83.4315L124.308 82.1464L124.878 80.8795C125.241 80.03 125.658 79.2023 126.065 78.371C126.471 77.5397 132.142 80.3749 131.789 81.1481Z" fill="black"/>
<path d="M158.736 75.1693C157.647 68.5661 150.43 51.5733 138.084 44.7595" stroke="black" stroke-width="1.2" stroke-linecap="round" stroke-linejoin="round"/>
<path d="M113.762 51.5625C107.328 56.4087 101.605 62.1322 96.7585 68.5661" stroke="black" stroke-width="1.2" stroke-linecap="round" stroke-linejoin="round"/>
<path d="M101.859 135.063C108.597 133.25 115.238 131.092 121.756 128.598C123.529 127.918 125.262 127.228 126.954 126.529" stroke="black" stroke-width="1.2" stroke-linecap="round" stroke-linejoin="round"/>
<path d="M207.228 93.6612C217.094 90.5761 227.407 89.1638 237.739 89.4829" stroke="black" stroke-width="1.2" stroke-linecap="round" stroke-linejoin="round"/>
<path d="M268.181 91.0147L294.881 87.4463" stroke="black" stroke-width="1.2" stroke-linecap="round" stroke-linejoin="round"/>
<path d="M264.268 107.173L285.868 120.779" stroke="black" stroke-width="1.2" stroke-linecap="round" stroke-linejoin="round"/>
<path d="M251.686 115.337L259.091 151.217" stroke="black" stroke-width="1.2" stroke-linecap="round" stroke-linejoin="round"/>
<path d="M190.943 138.813C198.233 142.498 204.687 147.645 209.9 153.934C215.113 160.222 218.975 167.518 221.244 175.365" stroke="black" stroke-width="1.2" stroke-linecap="round" stroke-linejoin="round"/>
<path d="M103.942 80.4585C100.189 85.7077 92.1227 88.3432 86.0095 86.3249C79.9617 84.3283 78.1793 78.5418 81.9474 73.4197C85.7155 68.2975 93.5421 65.7492 99.5754 67.6114C105.685 69.51 107.678 75.2565 103.942 80.4585Z" fill="white" stroke="#FFB26E" stroke-width="1.2" stroke-linecap="round" stroke-linejoin="round"/>
<path d="M90.9211 71.9602L99.9384 74.8135" stroke="#FFB26E" stroke-width="1.2" stroke-linecap="round" stroke-linejoin="round"/>
<path d="M88.3621 75.4705L97.383 78.3564" stroke="#FFB26E" stroke-width="1.2" stroke-linecap="round" stroke-linejoin="round"/>
<path d="M85.7917 78.9954L94.8163 81.9176" stroke="#FFB26E" stroke-width="1.2" stroke-linecap="round" stroke-linejoin="round"/>
<path d="M142.72 49.5659C138.001 56.416 127.252 59.9336 118.848 57.3889C110.564 54.8805 107.823 47.4459 112.575 40.8173C117.294 34.2576 127.648 30.8235 135.892 33.1141C144.255 35.4374 147.381 42.7884 142.72 49.5659Z" fill="white" stroke="#FFB26E" stroke-width="1.2" stroke-linecap="round" stroke-linejoin="round"/>
<path d="M120.928 51.359L124.42 52.5352L131.267 42.7628L136.011 44.1278L137.609 41.416L124.703 37.7859L122.856 40.3887L127.698 41.7428L120.928 51.359Z" fill="#FFB26E"/>
<path d="M104.374 141.463C98.5661 149.918 86.2962 153.806 77.17 150.121C68.1817 146.491 65.7785 136.908 71.6195 128.758C77.3914 120.699 89.193 116.902 98.1522 120.238C107.249 123.625 110.114 133.11 104.374 141.463Z" fill="white" stroke="#FFB26E" stroke-width="1.2" stroke-linecap="round" stroke-linejoin="round"/>
<path d="M78.7127 130.134L85.7698 129.825L84.648 131.404L79.8998 131.52L82.4699 134.482L81.3083 136.127L77.6418 131.636L78.7127 130.134Z" fill="#FFB26E"/>
<path d="M81.8457 138.533L93.052 130.798L94.9106 131.505L83.6934 139.285L81.8457 138.533Z" fill="#FFB26E"/>
<path d="M91.1787 139.996L92.3403 138.33L97.2011 138.229L94.5148 135.208L95.6293 133.604L99.4917 138.17L98.4245 139.717L91.1787 139.996Z" fill="#FFB26E"/>
<path d="M313.765 91.2073C311.286 95.9483 303.801 98.3079 297.128 96.4674C290.521 94.6523 287.276 89.3958 289.799 84.7638C292.322 80.1317 299.6 77.8411 306.16 79.5617C312.796 81.297 316.234 86.5099 313.765 91.2073Z" fill="white" stroke="#FFB26E" stroke-width="1.2" stroke-linecap="round" stroke-linejoin="round"/>
<path d="M296.155 90.9895L295.476 89.748C295.446 89.6925 295.426 89.6315 295.42 89.5686C295.413 89.5056 295.418 89.4419 295.436 89.3811C295.454 89.3203 295.484 89.2637 295.524 89.2146C295.564 89.1654 295.613 89.1246 295.669 89.0945L303.147 84.9961L304.29 87.0871L296.812 91.1819C296.7 91.2429 296.567 91.2569 296.444 91.2208C296.321 91.1848 296.217 91.1017 296.155 90.9895V90.9895Z" fill="#FFB26E"/>
<path d="M303.826 89.6574L307.176 84.3973C307.207 84.3512 307.224 84.2977 307.225 84.2426C307.227 84.1874 307.213 84.1329 307.186 84.0851C307.159 84.0373 307.118 83.9981 307.07 83.9718C307.021 83.9455 306.967 83.9332 306.911 83.9362L300.283 84.2811C300.23 84.2836 300.179 84.3001 300.134 84.329C300.09 84.3578 300.054 84.398 300.03 84.4453C300.007 84.4927 299.996 84.5455 300 84.5983C300.003 84.6511 300.021 84.702 300.05 84.7458L303.318 89.661C303.345 89.7035 303.383 89.7384 303.428 89.7625C303.472 89.7865 303.522 89.7989 303.573 89.7986C303.623 89.7982 303.673 89.7851 303.717 89.7604C303.762 89.7357 303.799 89.7003 303.826 89.6574V89.6574Z" fill="#FFB26E"/>
<path d="M309.093 130.7C305.928 136.929 296.319 139.92 287.752 137.357C279.286 134.816 275.144 127.846 278.379 121.791C281.584 115.791 290.895 112.858 299.292 115.217C307.79 117.606 312.23 124.528 309.093 130.7Z" fill="white" stroke="#FFB26E" stroke-width="1.2" stroke-linecap="round" stroke-linejoin="round"/>
<path d="M295.426 122.935C293.088 118.895 287.338 118.63 287.211 123.799C287.301 127.687 291.458 132.348 291.458 132.348C291.458 132.348 297.829 131.321 301.089 128.536C305.779 123.948 298.747 120.971 295.426 122.935Z" fill="#FFB26E"/>
<path d="M277.602 164.311C273.95 171.317 263.361 174.595 254.082 171.608C244.919 168.657 240.614 160.717 244.335 153.918C248.027 147.173 258.289 143.957 267.383 146.716C276.589 149.504 281.221 157.37 277.602 164.311Z" fill="white" stroke="#FFB26E" stroke-width="1.2" stroke-linecap="round" stroke-linejoin="round"/>
<path d="M268.225 160.732L272.461 157.759C272.521 157.718 272.59 157.693 272.663 157.686C272.735 157.68 272.808 157.692 272.874 157.722C272.94 157.752 272.997 157.799 273.04 157.857C273.083 157.916 273.11 157.985 273.118 158.057L273.652 163.201C273.659 163.274 273.647 163.347 273.617 163.414C273.586 163.481 273.539 163.538 273.48 163.581C273.42 163.624 273.35 163.65 273.277 163.657C273.204 163.664 273.131 163.652 273.064 163.622L268.29 161.444C268.226 161.412 268.17 161.365 268.129 161.306C268.088 161.247 268.063 161.178 268.057 161.106C268.05 161.035 268.062 160.963 268.092 160.897C268.121 160.832 268.167 160.775 268.225 160.732V160.732Z" fill="#FFB26E"/>
<path d="M252.957 164.322C254.154 165.338 255.55 166.092 257.055 166.537C262.5 168.203 268.624 166.283 270.813 162.242C271.197 161.538 271.444 160.766 271.539 159.97" stroke="#FFB26E" stroke-width="1.2" stroke-linecap="round" stroke-linejoin="round"/>
<path d="M253.915 156.935L249.541 160.34C249.471 160.395 249.388 160.429 249.3 160.439C249.212 160.449 249.123 160.434 249.043 160.396C248.964 160.359 248.896 160.299 248.848 160.225C248.799 160.151 248.773 160.065 248.771 159.977L248.531 154.415C248.528 154.334 248.546 154.252 248.583 154.179C248.62 154.106 248.676 154.044 248.744 153.999C248.812 153.953 248.891 153.926 248.972 153.919C249.054 153.913 249.136 153.928 249.21 153.962L253.824 156.114C253.9 156.149 253.966 156.202 254.015 156.269C254.064 156.337 254.095 156.416 254.104 156.499C254.113 156.582 254.1 156.665 254.067 156.742C254.034 156.818 253.982 156.885 253.915 156.935Z" fill="#FFB26E"/>
<path d="M268.896 153.936C267.699 152.919 266.302 152.163 264.794 151.718C259.367 150.052 253.229 151.972 251.04 156.013C250.656 156.717 250.409 157.489 250.314 158.285" stroke="#FFB26E" stroke-width="1.2" stroke-linecap="round" stroke-linejoin="round"/>
<path d="M240.846 199.491C235.285 209.656 220.855 214.037 208.876 209.195C197.103 204.435 192.355 192.634 198.018 182.876C203.608 173.245 217.406 168.994 229.077 173.34C240.948 177.758 246.332 189.447 240.846 199.491Z" fill="white" stroke="#FFB26E" stroke-width="1.2" stroke-linecap="round" stroke-linejoin="round"/>
<path d="M233.579 188.085C232.911 189.312 231.176 189.835 229.734 189.254C228.293 188.673 227.745 187.261 228.427 186.085C229.11 184.909 230.758 184.415 232.163 184.938C233.568 185.461 234.239 186.876 233.579 188.085Z" fill="#FFB26E"/>
<path d="M195.963 188.252L220.445 180.172L223.89 201.865" stroke="#FFB26E" stroke-width="1.2" stroke-linecap="round" stroke-linejoin="round"/>
<path d="M223.102 196.917L231.426 194.173L233.84 206.937" stroke="#FFB26E" stroke-width="1.2" stroke-linecap="round" stroke-linejoin="round"/>
<path d="M275.202 105.615C270.207 114.731 256.097 119.17 243.921 115.482C231.942 111.852 226.558 101.767 231.669 92.9752C236.719 84.3028 250.252 79.9793 262.119 83.2755C274.171 86.6406 280.132 96.6126 275.202 105.615Z" fill="white" stroke="#FFB26E" stroke-width="1.2" stroke-linecap="round" stroke-linejoin="round"/>
<path d="M264.424 101.35L253.708 91.3307C253.584 91.2146 253.437 91.1269 253.276 91.0736C253.115 91.0203 252.944 91.0027 252.775 91.022C252.607 91.0414 252.444 91.0972 252.299 91.1856C252.155 91.274 252.031 91.3929 251.937 91.5339L243.838 103.597C243.751 103.725 243.703 103.876 243.699 104.031C243.695 104.186 243.735 104.339 243.815 104.472C243.896 104.605 244.012 104.712 244.151 104.781C244.29 104.849 244.446 104.877 244.6 104.86L263.956 102.755C264.111 102.737 264.257 102.676 264.378 102.578C264.498 102.48 264.589 102.349 264.638 102.202C264.687 102.054 264.693 101.895 264.655 101.745C264.617 101.594 264.537 101.457 264.424 101.35V101.35Z" fill="#FFB26E"/>
<path d="M145.395 171.633C135.049 178.019 133.779 186.517 135.692 189.421C137.271 191.802 142.095 192.42 148.158 190.064" fill="#FFB26E"/>
<path d="M145.395 171.633C135.049 178.019 133.779 186.517 135.692 189.421C137.271 191.802 142.095 192.42 148.158 190.064" stroke="black" stroke-width="1.2" stroke-linecap="round" stroke-linejoin="round"/>
<path d="M147.047 189C137.54 194.833 136.051 202.163 137.315 205.386C138.988 209.659 145.795 210.53 151.857 208.174" fill="#FFB26E"/>
<path d="M147.047 189C137.54 194.833 136.051 202.163 137.315 205.386C138.988 209.659 145.795 210.53 151.857 208.174" stroke="black" stroke-width="1.2" stroke-linecap="round" stroke-linejoin="round"/>
<path d="M200.359 167.136C232.239 185.457 214.219 269.905 181.591 306.795L82.1833 240.12L130.316 223.058C139.834 230.137 152.724 230.246 161.862 223.512C169.881 217.599 173.779 207.314 171.841 197.201L200.359 167.136Z" fill="#FFB26E"/>
<path d="M184.681 152.615C203.213 159.222 211.377 194.645 211.979 202.595Z" fill="#FFB26E"/>
<path d="M132.922 122.02L131.735 118.187C131.14 116.272 131.295 114.204 132.171 112.4L133.031 110.625C133.178 110.32 133.439 110.085 133.757 109.971C134.076 109.857 134.426 109.873 134.734 110.015L135.772 110.498C136.775 110.961 137.669 111.63 138.397 112.461C139.125 113.292 139.67 114.267 139.997 115.322L141.086 118.782L132.922 122.02Z" fill="black"/>
<path d="M142.194 119.228C141.253 118.248 138.81 117.907 136.215 118.938C133.812 119.893 132.142 121.552 132.055 122.931L130.316 138.421L151.999 130.213L142.194 119.228Z" fill="black"/>
<path d="M143.101 119.287C142.161 118.31 138.81 117.907 136.204 118.924C133.801 119.878 132.131 121.537 132.044 122.917L130.316 138.421" stroke="white" stroke-width="1.2" stroke-linecap="round" stroke-linejoin="round"/>
<path d="M152.412 130.932C151.171 127.807 145.268 127.215 139.231 129.615C133.194 132.014 129.306 136.49 130.548 139.619L153.828 237.437L188.162 223.802L152.412 130.932Z" fill="black"/>
<path d="M152.906 130.565C151.664 127.436 145.283 127.215 139.231 129.614C133.18 132.014 128.878 137.238 130.119 140.378" stroke="white" stroke-width="1.2" stroke-linecap="round" stroke-linejoin="round"/>
<path d="M174.515 239.526C183.996 235.761 190.101 228.729 188.151 223.819C186.201 218.909 176.935 217.981 167.454 221.746C157.974 225.512 151.869 232.544 153.819 237.454C155.769 242.364 165.035 243.292 174.515 239.526Z" fill="black" stroke="#FFB26E" stroke-width="1.2" stroke-linecap="round" stroke-linejoin="round"/>
<path d="M182.855 241.318L187.505 239.47L185.871 234.195C184.485 230.703 177.885 230.043 171.151 232.718C164.417 235.393 160.068 240.399 161.455 243.892L163.089 249.166L168.534 246.988C173.81 246.759 178.855 244.756 182.851 241.303L182.855 241.318Z" fill="black" stroke="#FFB26E" stroke-width="1.2" stroke-linecap="round" stroke-linejoin="round"/>
<path d="M177.803 250.665C184.546 247.987 188.888 242.984 187.501 239.49C186.113 235.996 179.522 235.335 172.778 238.013C166.035 240.691 161.693 245.695 163.081 249.188C164.468 252.682 171.06 253.343 177.803 250.665Z" fill="black" stroke="#FFB26E" stroke-width="1.2" stroke-linecap="round" stroke-linejoin="round"/>
<path d="M82.1834 240.12C79.5661 184.658 110.709 148.411 139.602 139.241C142.277 138.392 145.236 139.604 146.303 142.215C152.111 156.26 114.818 194.126 135.866 218.945C138.534 222.089 145.163 226.009 149.613 219.729L153.313 235.346" fill="#FFB26E"/>
<path d="M117.566 157.352C125.447 150.392 134.094 144.351 143.34 139.347C142.147 138.89 140.833 138.853 139.616 139.242C120.18 145.413 99.7241 163.836 89.2148 192.118C96.7248 179.074 106.299 167.333 117.566 157.352V157.352Z" fill="white"/>
<path d="M178.168 197.85C166.86 163.502 141.072 143.583 152.173 132.638C153.229 131.596 154.714 131.128 156.09 131.669C166.207 135.662 198.947 151.635 203.499 200.555" fill="#FFB26E"/>
<path d="M156.089 131.669C155.559 131.463 154.986 131.39 154.421 131.456C153.856 131.523 153.316 131.727 152.848 132.05C195.607 154.691 200.504 189.141 203.336 198.965C198.228 151.286 166.098 135.6 156.089 131.669Z" fill="white"/>
<path d="M192.881 201.865C196.784 204.435 213.515 217.929 213.515 238.555" stroke="black" stroke-width="1.2" stroke-linecap="round" stroke-linejoin="round"/>
<path d="M82.1834 240.12C79.5661 184.658 110.709 148.411 139.602 139.241C142.277 138.392 145.236 139.604 146.303 142.215C151.225 154.136 124.885 183.315 129.924 206.937C130.259 208.543 130.745 210.115 131.376 211.63C138.273 228.064 148.151 222.942 149.606 219.729" stroke="black" stroke-width="1.2" stroke-linecap="round" stroke-linejoin="round"/>
<path d="M200.359 167.136C232.239 185.457 214.219 269.905 181.591 306.795" stroke="black" stroke-width="1.2" stroke-linecap="round" stroke-linejoin="round"/>
<path d="M184.681 152.615C203.213 159.222 211.377 194.645 211.979 202.595" stroke="black" stroke-width="1.2" stroke-linecap="round" stroke-linejoin="round"/>
<path d="M177.246 197.622C166.16 159.639 140.945 145.402 152.173 132.642C152.646 132.097 153.277 131.711 153.978 131.537C154.679 131.364 155.417 131.411 156.09 131.673C166.207 135.666 198.947 151.639 203.5 200.558" stroke="black" stroke-width="1.2" stroke-linecap="round" stroke-linejoin="round"/>
<path d="M125.56 79.4164C126.044 78.4 126.575 77.3533 127.154 76.2764C127.205 76.1783 127.259 76.084 127.31 75.9932C127.502 75.6312 127.764 75.3109 128.081 75.0511C128.399 74.7912 128.764 74.5968 129.157 74.4793C129.549 74.3618 129.962 74.3234 130.369 74.3665C130.777 74.4095 131.172 74.533 131.532 74.7299L131.568 74.7517L131.749 74.857C132.427 75.2647 132.923 75.9149 133.138 76.6754C133.353 77.436 133.271 78.2498 132.907 78.9518L132.472 79.8012C132.056 80.6337 131.661 81.4493 131.288 82.248L125.56 79.4164Z" fill="black"/>
</g>
<path d="M50.1841 193.793C75.8495 238.756 131.92 265.947 181.355 295.447C181.946 295.801 182.621 295.992 183.31 296C183.999 296.007 184.677 295.832 185.276 295.491C202.854 285.546 221.009 275.727 238.28 265.254" stroke="white" stroke-width="2" stroke-miterlimit="10"/>
</g>
<defs>
<clipPath id="clip0">
<rect width="368" height="297.99" fill="white"/>
</clipPath>
</defs>
</svg>
